<mxfile host="app.diagrams.net" modified="2024-04-16T11:13:58.922Z" agent="Mozilla/5.0 (X11; Linux x86_64; rv:109.0) Gecko/20100101 Firefox/115.0" version="24.0.5" etag="ZsjWxE-KG_CFTaRSqsxp" type="github">
  <diagram name="Page-1" id="o0QanbhsqBCeWXjGLMx0">
    <mxGraphModel>
      <root>
        <mxCell id="0" />
        <mxCell id="1" parent="0" />
      </root>
    </mxGraphModel>
  </diagram>
</mxfile>
